<?xml version="1.0" encoding="utf-8"?>
<!-- Generator: Adobe Illustrator 27.3.1, SVG Export Plug-In . SVG Version: 6.00 Build 0)  -->
<svg version="1.1" id="Layer_2_00000030488712781777189840000004287296934670337417_"
	 xmlns="http://www.w3.org/2000/svg" xmlns:xlink="http://www.w3.org/1999/xlink" x="0px" y="0px" viewBox="0 0 240.2 240.2"
	 style="enable-background:new 0 0 240.2 240.2;" xml:space="preserve">
<style type="text/css">
	.st0{fill:#8D8D8D;}
</style>
<g id="Layer_1-2">
	<path class="st0" d="M212.2,0H28C12.5,0,0,12.5,0,28v184.2c0,15.5,12.5,28,28,28h184.2c15.5,0,28-12.5,28-28V28
		C240.2,12.5,227.7,0,212.2,0z M152.3,219.2c-5.2,1-7-2.2-7-4.9c0-3.4,0.1-14.3,0.1-27.9c0-9.5-3.2-15.7-6.9-18.9
		c22.7-2.5,46.5-11.1,46.5-50.2c0-11.1-3.9-20.2-10.5-27.3c1.1-2.6,4.5-12.9-1-26.9c0,0-8.5-2.7-28,10.4c-8.1-2.2-16.8-3.4-25.5-3.4
		s-17.3,1.2-25.5,3.4c-19.5-13.2-28-10.4-28-10.4c-5.5,14-2.1,24.4-1,26.9C59,97.1,55,106.2,55,117.3c0,39,23.8,47.7,46.4,50.3
		c-2.9,2.5-5.6,7-6.5,13.6c-5.8,2.6-20.5,7.1-29.6-8.5c0,0-5.4-9.8-15.6-10.5c0,0-9.9-0.1-0.7,6.2c0,0,6.7,3.1,11.3,14.9
		c0,0,6,18.2,34.3,12c0.1,8.5,0.1,16.5,0.1,18.9c0,2.7-1.9,5.8-6.9,4.9c-40.4-13.5-69.6-51.6-69.6-96.6
		C18.2,66.3,63.8,20.7,120,20.7s101.8,45.6,101.8,101.8C221.9,167.6,192.7,205.7,152.3,219.2L152.3,219.2z M93.2,187.4
		c-1.2,0.2-2.3-0.3-2.4-1.1s0.7-1.7,1.9-1.9c1.2-0.2,2.3,0.3,2.4,1.1C95.3,186.3,94.4,187.1,93.2,187.4z M86.8,185.8
		c0,0.8-0.9,1.5-2.2,1.6c-1.2,0-2.2-0.6-2.2-1.5s1-1.5,2.2-1.6S86.8,185,86.8,185.8L86.8,185.8z M78.2,184.9
		c-0.2,0.8-1.4,1.2-2.5,0.8c-1.2-0.4-1.9-1.3-1.7-2.1c0.2-0.8,1.4-1.2,2.6-0.8C77.7,183.1,78.4,184.1,78.2,184.9z M70.7,182.6
		c-0.6,0.6-1.8,0.4-2.6-0.4c-0.9-0.8-1.1-2-0.6-2.6c0.6-0.6,1.8-0.4,2.6,0.4C71,180.8,71.3,182,70.7,182.6z M64.9,176
		c-0.6,0.4-1.6,0-2.3-0.9c-0.6-0.9-0.6-2,0-2.4s1.6,0,2.3,0.9C65.5,174.5,65.5,175.6,64.9,176z M61.5,170.3
		c-0.5,0.4-1.4,0.2-2.1-0.5c-0.7-0.7-0.8-1.7-0.3-2.1c0.5-0.4,1.4-0.2,2.1,0.5C61.8,168.9,62,169.8,61.5,170.3z M56.5,165.8
		c-0.2,0.5-1,0.7-1.8,0.3s-1.2-1-0.9-1.5c0.2-0.5,1-0.7,1.8-0.3C56.3,164.6,56.7,165.3,56.5,165.8z"/>
</g>
</svg>
