<?xml version="1.0" encoding="utf-8"?>
<!-- Generator: Adobe Illustrator 27.3.1, SVG Export Plug-In . SVG Version: 6.00 Build 0)  -->
<svg version="1.1" id="Layer_2_00000102509949287652865990000009005976978181375667_"
	 xmlns="http://www.w3.org/2000/svg" xmlns:xlink="http://www.w3.org/1999/xlink" x="0px" y="0px" viewBox="0 0 487.6 487.6"
	 style="enable-background:new 0 0 487.6 487.6;" xml:space="preserve">
<style type="text/css">
	.st0{fill:#8D8D8D;}
</style>
<g id="Layer_1-2">
	<g>
		<path class="st0" d="M243.8,184.5c-33.2,0-60.2,27-60.2,60.2s27,60.2,60.2,60.2s60.2-27,60.2-60.2S277,184.5,243.8,184.5
			L243.8,184.5z M243.8,184.5c-33.2,0-60.2,27-60.2,60.2s27,60.2,60.2,60.2s60.2-27,60.2-60.2S277,184.5,243.8,184.5L243.8,184.5z
			 M243.8,184.5c-33.2,0-60.2,27-60.2,60.2s27,60.2,60.2,60.2s60.2-27,60.2-60.2S277,184.5,243.8,184.5L243.8,184.5z M243.8,184.5
			c-33.2,0-60.2,27-60.2,60.2s27,60.2,60.2,60.2s60.2-27,60.2-60.2S277,184.5,243.8,184.5L243.8,184.5z M321.2,98.6H166.3
			c-37.9,0-68.6,30.7-68.6,68.6v154.9c0,37.9,30.7,68.6,68.6,68.6h154.9c37.9,0,68.6-30.7,68.6-68.6V167.2
			C389.8,129.4,359.1,98.6,321.2,98.6z M243.8,337.6c-51.3,0-92.9-41.6-92.9-92.9s41.6-92.9,92.9-92.9s92.9,41.6,92.9,92.9
			S295.1,337.6,243.8,337.6L243.8,337.6z M339.8,169.9c-12,0-21.6-9.7-21.6-21.6s9.7-21.6,21.6-21.6s21.6,9.7,21.6,21.6
			S351.7,169.9,339.8,169.9L339.8,169.9z M243.8,184.5c-33.2,0-60.2,27-60.2,60.2s27,60.2,60.2,60.2s60.2-27,60.2-60.2
			S277,184.5,243.8,184.5z M243.8,184.5c-33.2,0-60.2,27-60.2,60.2s27,60.2,60.2,60.2s60.2-27,60.2-60.2S277,184.5,243.8,184.5z
			 M243.8,184.5c-33.2,0-60.2,27-60.2,60.2s27,60.2,60.2,60.2s60.2-27,60.2-60.2S277,184.5,243.8,184.5z"/>
		<path class="st0" d="M377,0H110.6C49.5,0,0,49.5,0,110.6V377c0,61,49.5,110.6,110.6,110.6H377c61.1,0,110.6-49.5,110.6-110.6
			V110.6C487.6,49.5,438.1,0,377,0z M422.8,319.5c0,57.1-46.3,103.3-103.3,103.3H168.1c-57.1,0-103.3-46.3-103.3-103.3V168.1
			C64.8,111,111,64.8,168.1,64.8h151.4c57.1,0,103.3,46.3,103.3,103.3V319.5L422.8,319.5z"/>
	</g>
</g>
</svg>
