<?xml version="1.0" encoding="utf-8"?>
<!-- Generator: Adobe Illustrator 27.3.1, SVG Export Plug-In . SVG Version: 6.00 Build 0)  -->
<svg version="1.1" id="Layer_2_00000047749243071756801880000004028471750761297838_"
	 xmlns="http://www.w3.org/2000/svg" xmlns:xlink="http://www.w3.org/1999/xlink" x="0px" y="0px" viewBox="0 0 856 856"
	 style="enable-background:new 0 0 856 856;" xml:space="preserve">
<style type="text/css">
	.st0{fill:#8D8D8D;}
</style>
<g id="svg5">
	<g>
		<polygon class="st0" points="649.3,668.5 567.8,668.5 208.1,187.5 289.6,187.5 		"/>
		<path class="st0" d="M756.2,0H99.8C44.7,0,0,44.7,0,99.8v656.4C0,811.3,44.7,856,99.8,856h656.4c55.1,0,99.8-44.7,99.8-99.8V99.8
			C856,44.7,811.3,0,756.2,0z M548.6,706.9l-163.8-219l-202.7,219H130l231.5-250.1l-230-307.7h177.3l150.8,201.7l186.7-201.7h52.1
			L482.9,381.9l243,324.9H548.6V706.9z"/>
	</g>
</g>
</svg>
